Coordinates
nRows=9
nColumns=38

# SIMM Motion File Header:
name Coordinates
datacolumns 38
datarows 9
otherdata 1
range 2.33000000000000010000 2.33800000000000010000

Units are S.I. units (second, meters, Newtons, ...)
Angles are in degrees.

endheader
time	pelvis_tilt	pelvis_list	pelvis_rotation	pelvis_tx	pelvis_ty	pelvis_tz	hip_flexion_r	hip_adduction_r	hip_rotation_r	knee_angle_r	ankle_angle_r	subtalar_angle_r	mtp_angle_r	hip_flexion_l	hip_adduction_l	hip_rotation_l	knee_angle_l	ankle_angle_l	subtalar_angle_l	mtp_angle_l	lumbar_extension	lumbar_bending	lumbar_rotation	arm_flex_r	arm_add_r	arm_rot_r	elbow_flex_r	pro_sup_r	wrist_flex_r	wrist_dev_r	arm_flex_l	arm_add_l	arm_rot_l	elbow_flex_l	pro_sup_l	wrist_flex_l	wrist_dev_l
      2.33000000000000010000	      3.61462045983261810000	     -3.35642026573849560000	     -1.63602385281709430000	      0.69685690727895755000	      0.98889256645734280000	     -0.29701303535924811000	      4.80640187348296520000	      9.77507837193713240000	      4.11941931692515160000	    -32.58993391558582400000	     23.67343303488091500000	     -0.00000000000000932237	     -0.00000000000002200899	     22.95474427912727600000	     -0.53785377146994717000	      0.76102262213179717000	    -78.06170962451805900000	     -1.54316061309754550000	     -0.00000000000000591138	     -0.00000000000001601016	    -19.28966922775381600000	      3.17203515614420570000	      6.15116468012246910000	    -10.75527287085260800000	    -23.78207319844861100000	     -7.60020433070929790000	     90.71276854935156600000	     70.37810755361219600000	     -0.00000000000000384726	     -0.00000000000001265338	    -12.40558998655138700000	    -13.94929460879832900000	      0.05620008186746371100	     81.83952408498052500000	     97.45912887701837200000	     -0.00000000000000035726	     -0.00000000000000109839
      2.33100000000000000000	      3.60063259826366360000	     -3.28482130747011200000	     -1.65405780880787170000	      0.69686840554731611000	      0.98929693995892887000	     -0.29697036745283989000	      4.57728737793618910000	      9.69430915941405220000	      4.17635775587297960000	    -32.37198614369702200000	     23.62422355254822300000	     -0.00000000000000915677	     -0.00000000000002220421	     23.06809544294955900000	     -0.45424460049517984000	      0.74993123166061215000	    -77.83251701415481700000	     -1.42792973781564550000	     -0.00000000000000592771	     -0.00000000000001610036	    -19.26682203878017000000	      3.08296065049716320000	      6.19747357426048140000	    -10.70853480284029800000	    -23.81896053804274200000	     -7.63456053827019860000	     90.83539628342231300000	     70.32131045250655200000	     -0.00000000000000387766	     -0.00000000000001272306	    -12.65620036048643200000	    -13.95520463010297100000	     -0.08205132431268956400	     81.95683533092365300000	     97.34758068234344800000	     -0.00000000000000037240	     -0.00000000000000110898
      2.33199999999999990000	      3.58534313945709070000	     -3.21196065372193030000	     -1.67245313323209980000	      0.69688363826460797000	      0.98970497777281263000	     -0.29692809933601222000	      4.34848140148335280000	      9.61163467247059880000	      4.23321903435728060000	    -32.15150077607318500000	     23.57112123173637000000	     -0.00000000000000892192	     -0.00000000000002241960	     23.18015920256680600000	     -0.36943747065451943000	      0.73839244152492600000	    -77.59754193174887900000	     -1.31073482699046930000	     -0.00000000000000595302	     -0.00000000000001618954	    -19.24189007108402200000	      2.99242688228354490000	      6.24338045842844200000	    -10.66348217354516900000	    -23.85522756416228800000	     -7.66989991772097480000	     90.95850345783756600000	     70.26628772829872100000	     -0.00000000000000390830	     -0.00000000000001277270	    -12.90806063262501100000	    -13.96271287500567500000	     -0.21897733419585824000	     82.07862382047385100000	     97.23524738687065400000	     -0.00000000000000039159	     -0.00000000000000111800
      2.33300000000000020000	      3.56872231443723820000	     -3.13784242087870170000	     -1.69128140887626980000	      0.69690244244007360000	      0.99011651862265282000	     -0.29688613158671801000	      4.12012603499885270000	      9.52706834242113840000	      4.29004095792397510000	    -31.92866625109712300000	     23.51409260924296900000	     -0.00000000000000866315	     -0.00000000000002263811	     23.29098114578906500000	     -0.28347376613637199000	      0.72634155030817127000	    -77.35681377069414600000	     -1.19178496276532540000	     -0.00000000000000597155	     -0.00000000000001627310	    -19.21486780695156700000	      2.90042415881276570000	      6.28900792096574790000	    -10.62012896793165100000	    -23.89086031750118600000	     -7.70625152849753730000	     91.08205162699154300000	     70.21308524582750000000	     -0.00000000000000393852	     -0.00000000000001280882	    -13.16101514910533000000	    -13.97181874822827700000	     -0.35446533453726142000	     82.20464744237575900000	     97.12229147566189600000	     -0.00000000000000040886	     -0.00000000000000112561
      2.33400000000000010000	      3.55074413824214790000	     -3.06247346329407440000	     -1.71061165324350890000	      0.69692465117339930000	      0.99053140775927973000	     -0.29684436393590319000	      3.89236024413810530000	      9.44062698994773800000	      4.34685887338118080000	    -31.70367221096121600000	     23.45310730624508400000	     -0.00000000000000838377	     -0.00000000000002291039	     23.40060421208616500000	     -0.19639788855331206000	      0.71371671853173424000	    -77.11036237603134700000	     -1.07130505680570520000	     -0.00000000000000598185	     -0.00000000000001635675	    -19.18575508208496000000	      2.80694554139568850000	      6.33447776050848880000	    -10.57849076177756200000	    -23.92584690717658400000	     -7.74364221973154000000	     91.20600757513854300000	     70.16174119995287100000	     -0.00000000000000396885	     -0.00000000000001283848	    -13.41491005261871500000	    -13.98252131984526300000	     -0.48840729427632829000	     82.33466748096937200000	     97.00887158720601600000	     -0.00000000000000043518	     -0.00000000000000113643
      2.33500000000000000000	      3.53138659679095170000	     -2.98586348763137190000	     -1.73050967423683670000	      0.69695009461334112000	      0.99094949728198578000	     -0.29680269653980057000	      3.66531924098021200000	      9.35233079505371380000	      4.40370492718053440000	    -31.47670871152712400000	     23.38813794483640900000	     -0.00000000000000807095	     -0.00000000000002323651	     23.50906838651087600000	     -0.10825696200009990000	      0.70045969725410429000	    -76.85821805140371100000	     -0.94953406542197838000	     -0.00000000000000600216	     -0.00000000000001643352	    -19.15455709665046100000	      2.71198722212566470000	      6.37991008679490260000	    -10.53858444378131100000	    -23.96017759263976300000	     -7.78209644920546320000	     91.33034304998653900000	     70.11228626864358700000	     -0.00000000000000399842	     -0.00000000000001286713	    -13.66959373837061900000	    -13.99481910739916700000	     -0.62070013227872800000	     82.46844898243237800000	     96.89514197422579400000	     -0.00000000000000046879	     -0.00000000000000114769
      2.33599999999999990000	      3.51063183316846230000	     -2.90802516678753030000	     -1.75103742592298860000	      0.69697860091786534000	      0.99137064644622530000	     -0.29676103126819264000	      3.43913385439351990000	      9.26220326773645470000	      4.46060732382511560000	    -31.24796543621355100000	     23.31916007540973700000	     -0.00000000000000775429	     -0.00000000000002354421	     23.61641039258059000000	     -0.01910053867062117700	      0.68651655776856491000	    -76.60041156867284000000	     -0.82672320457838344000	     -0.00000000000000602409	     -0.00000000000001649614	    -19.12128442840466400000	      2.61554890152718620000	      6.42542242142685980000	    -10.50042793741452000000	    -23.99384486558552300000	     -7.82163610177795120000	     91.45503449367839700000	     70.06474376614210100000	     -0.00000000000000402756	     -0.00000000000001291158	    -13.92491730516911600000	    -14.00870985704782800000	     -0.75124608474817467000	     82.60576112159132800000	     96.78125196453639500000	     -0.00000000000000049377	     -0.00000000000000115815
      2.33700000000000020000	      3.48846633331076990000	     -2.82897425339540920000	     -1.77225236430930560000	      0.69700999721560675000	      0.99179472195538843000	     -0.29671927300970091000	      3.21392989882724090000	      9.17027121878579980000	      4.51758958321705870000	    -31.01763091368678400000	     23.24615210206360400000	     -0.00000000000000743983	     -0.00000000000002389483	     23.72266338394916500000	      0.07101969522698420300	      0.67183842220528811000	    -76.33697418043922800000	     -0.70313416503182313000	     -0.00000000000000604112	     -0.00000000000001657043	    -19.08595304815989400000	      2.51763416680884820000	      6.47112879850592200000	    -10.46403992245606300000	    -24.02684353181419000000	     -7.86228030725755560000	     91.58006277111032000000	     70.01912979615944700000	     -0.00000000000000405688	     -0.00000000000001295227	    -14.18073500109089800000	    -14.02419032401643800000	     -0.87995307234528231000	     82.74637756930694400000	     96.66734542192358500000	     -0.00000000000000050963	     -0.00000000000000116644
      2.33800000000000010000	      3.46488111102810990000	     -2.74872969305085400000	     -1.79420680309680520000	      0.69704411056857052000	      0.99222159823722988000	     -0.29667733099480387000	      2.98982754139353670000	      9.07656473087081390000	      4.57466979782206100000	    -30.78589173986892600000	     23.16909520700362900000	     -0.00000000000000716110	     -0.00000000000002422888	     23.82785663475124200000	      0.16205021325995012000	      0.65638219482104410000	    -76.06793763579848600000	     -0.57903732760540272000	     -0.00000000000000605727	     -0.00000000000001664210	    -19.04858433780237400000	      2.41825087058950410000	      6.51713886516801910000	    -10.42943955601030500000	    -24.05917079301777400000	     -7.90404525772191580000	     91.70541289553318600000	     69.97545340510660600000	     -0.00000000000000408546	     -0.00000000000001301961	    -14.43690466326775700000	    -14.04125605268133400000	     -1.00673506703173450000	     82.89007686044055800000	     96.55356020703513300000	     -0.00000000000000051715	     -0.00000000000000117365
